# xmcd CD database file
#
# Track frame offsets:
#	150
#	13494
#	24029
#	35520
#	52493
#	67922
#	82191
#	93670
#	105773
#	116927
#	130458
#	144128
#	158142
#	172890
#	187062
#	200570
#	212577
#	224055
#	239316
#	252202
#	265334
#	280680
#
# Disc length: 3893 seconds
#
# Revision: 0
# Processed by: cddbd v1.5.1PL0 Copyright (c) Steve Scherf et al.
# Submitted via: CDex 1.51
#
DISCID=490f3316
DTITLE=Sonny Stitt - Complete 1949-1950 Prestige Masters
DYEAR=1900
DGENRE=Jazz
TTITLE0=All God's Chillum Got Rythm
TTITLE1=Sonny Side
TTITLE2=Bud's Blues
TTITLE3=Sunset
TTITLE4=Strike Up The Band
TTITLE5=I Want To Be Happy
TTITLE6=Taking A Chance On Love
TTITLE7=Fine And Dandy
TTITLE8=Avalon
TTITLE9=Later
TTITLE10=Ain't Misbehavin'
TTITLE11=Mean To Me
TTITLE12=Stairway To The Stars
TTITLE13=Touch Of The Blues
TTITLE14=Count Every Star
TTITLE15=Nice Work If You Can Get It
TTITLE16=There Will Never Be Another You
TTITLE17=Blazin'
TTITLE18=Nevertheless
TTITLE19=Jeepers Creepers
TTITLE20=Imagination
TTITLE21=Cherokee
EXTD=
EXTT0=
EXTT1=
EXTT2=
EXTT3=
EXTT4=
EXTT5=
EXTT6=
EXTT7=
EXTT8=
EXTT9=
EXTT10=
EXTT11=
EXTT12=
EXTT13=
EXTT14=
EXTT15=
EXTT16=
EXTT17=
EXTT18=
EXTT19=
EXTT20=
EXTT21=
PLAYORDER=
